<?xml version="1.0" encoding="utf-8"?>
<!-- Generator: Adobe Illustrator 16.0.0, SVG Export Plug-In . SVG Version: 6.00 Build 0)  -->
<!DOCTYPE svg PUBLIC "-//W3C//DTD SVG 1.1//EN" "http://www.w3.org/Graphics/SVG/1.1/DTD/svg11.dtd">
<svg version="1.1" id="Layer_1" xmlns="http://www.w3.org/2000/svg" xmlns:xlink="http://www.w3.org/1999/xlink" x="0px" y="0px"
	 width="111.25px" height="88.167px" viewBox="0 0 111.25 88.167" enable-background="new 0 0 111.25 88.167" xml:space="preserve">
<path fill="#FFFFFF" d="M61.158,28.636c0.109-0.234,0.213-0.468,0.309-0.706c0.852-2.088,1.277-4.305,1.277-6.524
	c0-2.224-0.42-4.452-1.266-6.55c-0.851-2.098-2.127-4.071-3.824-5.767c-1.695-1.697-3.667-2.974-5.764-3.82
	C49.787,4.42,47.56,4,45.337,4c-2.219,0-4.437,0.426-6.525,1.276c-2.087,0.849-4.046,2.126-5.731,3.812
	c-1.689,1.689-2.966,3.65-3.813,5.742c-0.85,2.089-1.277,4.31-1.277,6.532c0,2.223,0.422,4.448,1.271,6.544
	c0.849,2.096,2.124,4.062,3.82,5.758c1.694,1.694,3.661,2.972,5.757,3.818c2.097,0.85,4.321,1.271,6.544,1.271
	c2.219,0,4.44-0.425,6.531-1.275c0.245-0.098,0.486-0.203,0.724-0.313l3.697,3.695l3.513-0.813l-0.07,0.069l3.143,3.145l4.252-0.833
	L70,45.257l-0.834,4.252l2.48,2.479l7.504-0.363l0.479-4.515L61.158,28.636z M50.162,33.168c-1.526,0.622-3.153,0.934-4.779,0.934
	c-1.634,0-3.266-0.31-4.799-0.933c-1.532-0.621-2.965-1.548-4.212-2.796c-1.248-1.248-2.176-2.682-2.797-4.213
	c-0.621-1.532-0.93-3.165-0.93-4.798c0-1.626,0.311-3.253,0.932-4.78c0.622-1.527,1.549-2.957,2.794-4.202
	c1.245-1.243,2.672-2.171,4.196-2.792c1.525-0.622,3.149-0.933,4.772-0.933c1.638,0,3.273,0.309,4.808,0.928
	c1.536,0.621,2.97,1.548,4.218,2.797c1.25,1.249,2.176,2.684,2.799,4.219c0.619,1.536,0.928,3.17,0.928,4.808
	c0,1.623-0.312,3.245-0.932,4.77c-0.621,1.526-1.553,2.954-2.795,4.197C53.119,31.62,51.689,32.547,50.162,33.168z"/>
<g>
	<path fill="#FFFFFF" d="M1.905,63.685h2.73l5.693,8.677c0.571,0.868,1.249,2.328,1.249,2.328h0.042c0,0-0.148-1.438-0.148-2.328
		v-8.677h2.709V78.71h-2.709l-5.693-8.655c-0.571-0.867-1.249-2.328-1.249-2.328H4.487c0,0,0.148,1.438,0.148,2.328v8.655h-2.73
		V63.685z"/>
	<path fill="#FFFFFF" d="M22.691,67.664c3.302,0,5.947,2.351,5.947,5.651c0,3.322-2.646,5.649-5.926,5.649
		c-3.302,0-5.947-2.327-5.947-5.649C16.766,70.013,19.411,67.664,22.691,67.664z M22.713,76.679c1.735,0,3.196-1.354,3.196-3.364
		c0-1.989-1.46-3.364-3.196-3.364c-1.757,0-3.217,1.375-3.217,3.364C19.496,75.326,20.956,76.679,22.713,76.679z"/>
	<path fill="#FFFFFF" d="M31.224,63.685h8.635v2.35h-5.905v4.254h4.974v2.35h-4.974v6.074h-2.73V63.685z"/>
	<path fill="#FFFFFF" d="M46.718,67.664c3.111,0,4.783,2.266,4.783,5.123c0,0.316-0.063,1.037-0.063,1.037h-7.45
		c0.169,1.883,1.63,2.855,3.238,2.855c1.735,0,3.111-1.186,3.111-1.186l1.037,1.926c0,0-1.65,1.545-4.338,1.545
		c-3.577,0-5.799-2.582-5.799-5.649C41.237,69.992,43.501,67.664,46.718,67.664z M48.792,71.981
		c-0.042-1.46-0.952-2.243-2.137-2.243c-1.376,0-2.328,0.848-2.582,2.243H48.792z"/>
	<path fill="#FFFFFF" d="M58.445,67.664c3.111,0,4.783,2.266,4.783,5.123c0,0.316-0.064,1.037-0.064,1.037h-7.449
		c0.169,1.883,1.631,2.855,3.238,2.855c1.734,0,3.111-1.186,3.111-1.186l1.037,1.926c0,0-1.65,1.545-4.34,1.545
		c-3.577,0-5.799-2.582-5.799-5.649C52.964,69.992,55.228,67.664,58.445,67.664z M60.52,71.981c-0.043-1.46-0.953-2.243-2.138-2.243
		c-1.376,0-2.328,0.848-2.582,2.243H60.52z"/>
	<path fill="#FFFFFF" d="M65.876,63.685h5.122c4.635,0,7.66,2.751,7.66,7.492c0,4.74-3.025,7.533-7.66,7.533h-5.122V63.685z
		 M70.85,76.362c3.047,0,4.994-1.799,4.994-5.185c0-3.344-1.988-5.143-4.994-5.143h-2.244v10.326L70.85,76.362L70.85,76.362z"/>
	<path fill="#FFFFFF" d="M81.096,63.685h2.668v2.393h-2.668V63.685z M81.096,67.917h2.688V78.71h-2.688V67.917z"/>
	<path fill="#FFFFFF" d="M90.834,80.871c1.65,0,3.047-0.699,3.047-2.625v-0.635c0-0.254,0.043-0.57,0.043-0.57h-0.043
		c-0.635,0.951-1.566,1.459-3.006,1.459c-3.09,0-4.846-2.496-4.846-5.459s1.672-5.377,4.783-5.377c2.35,0,3.194,1.377,3.194,1.377
		h0.062c0,0-0.02-0.127-0.02-0.297v-0.826h2.518v10.139c0,3.703-2.879,5.102-5.692,5.102c-1.354,0-2.793-0.382-3.83-0.932
		l0.806-2.055C87.85,80.171,89.203,80.871,90.834,80.871z M93.943,73.061c0-2.455-1.205-3.11-2.666-3.11
		c-1.629,0-2.539,1.184-2.539,3.004c0,1.885,0.973,3.28,2.709,3.28C92.738,76.235,93.943,75.496,93.943,73.061z"/>
	<path fill="#FFFFFF" d="M99.852,75.496c0,0,1.187,1.185,2.941,1.185c0.764,0,1.42-0.339,1.42-0.974c0-1.607-5.25-1.396-5.25-4.867
		c0-2.012,1.799-3.176,4.127-3.176c2.434,0,3.619,1.229,3.619,1.229l-0.994,1.988c0,0-0.994-0.93-2.646-0.93
		c-0.696,0-1.375,0.295-1.375,0.973c0,1.523,5.248,1.334,5.248,4.805c0,1.799-1.565,3.238-4.127,3.238
		c-2.688,0-4.188-1.588-4.188-1.588L99.852,75.496z"/>
</g>
</svg>
