<?xml version="1.0" encoding="utf-8"?>
<!-- Generator: Adobe Illustrator 16.0.0, SVG Export Plug-In . SVG Version: 6.00 Build 0)  -->
<!DOCTYPE svg PUBLIC "-//W3C//DTD SVG 1.1//EN" "http://www.w3.org/Graphics/SVG/1.1/DTD/svg11.dtd">
<svg version="1.1" id="Layer_1" xmlns="http://www.w3.org/2000/svg" xmlns:xlink="http://www.w3.org/1999/xlink" x="0px" y="0px"
	 width="162.113px" height="118.481px" viewBox="0 0 162.113 118.481" enable-background="new 0 0 162.113 118.481"
	 xml:space="preserve">
<g>
	<g>
		<path fill="#36B16D" d="M92.705,39.07c0.17-0.371,0.334-0.742,0.487-1.118c1.348-3.312,2.027-6.828,2.027-10.348
			c0-3.526-0.665-7.06-2.01-10.386c-1.345-3.326-3.367-6.456-6.061-9.147c-2.691-2.69-5.817-4.717-9.146-6.059
			C74.671,0.666,71.139,0,67.615,0c-3.518,0-7.036,0.675-10.349,2.025c-3.31,1.347-6.417,3.371-9.089,6.045
			c-2.68,2.679-4.705,5.79-6.049,9.105c-1.347,3.313-2.023,6.834-2.023,10.357c0,3.524,0.669,7.053,2.015,10.379
			c1.347,3.322,3.368,6.445,6.058,9.131c2.687,2.687,5.807,4.71,9.131,6.054c3.325,1.349,6.851,2.016,10.377,2.016
			c3.52,0,7.042-0.673,10.357-2.02c0.388-0.158,0.769-0.324,1.15-0.5l5.861,5.862l5.571-1.289l-0.111,0.109l4.988,4.986l6.742-1.32
			l4.487,4.488l-1.323,6.74l3.934,3.936l11.9-0.578l0.765-7.158L92.705,39.07z M75.267,46.256c-2.422,0.986-5,1.479-7.582,1.479
			c-2.591,0-5.179-0.493-7.609-1.479c-2.431-0.981-4.703-2.454-6.681-4.433c-1.979-1.978-3.45-4.251-4.436-6.682
			c-0.984-2.429-1.476-5.018-1.476-7.608c0-2.579,0.495-5.159,1.478-7.582c0.986-2.421,2.458-4.688,4.432-6.663
			c1.974-1.973,4.237-3.444,6.656-4.428c2.418-0.986,4.992-1.481,7.566-1.481c2.598,0,5.191,0.49,7.625,1.473
			c2.436,0.985,4.709,2.456,6.692,4.437c1.981,1.98,3.447,4.257,4.435,6.691c0.982,2.435,1.474,5.026,1.474,7.624
			c0,2.573-0.495,5.146-1.48,7.564c-0.985,2.421-2.458,4.684-4.429,6.656C79.954,43.798,77.688,45.271,75.267,46.256z"/>
		<g>
			<path fill="#36B16D" d="M20.967,110.491h-3.824L4.951,96.388v14.103H0v-23.22h3.722l12.293,14.479V87.271h4.952V110.491z"/>
			<path fill="#36B16D" d="M48.377,97.481H58.86v4.473H48.377v8.537h-4.952v-23.22h16.972v4.507h-12.02V97.481z"/>
			<path fill="#36B16D" d="M77.209,104.037H65.292c0.478,1.639,1.741,2.902,4.097,2.902c1.332,0,2.254-0.41,2.766-1.229h4.951
				c-0.887,3.142-3.961,5.156-7.819,5.156c-5.259,0-8.776-3.654-8.776-8.537c0-4.917,3.483-8.537,8.708-8.537
				c4.61,0,8.093,3.312,8.093,8.195C77.312,102.671,77.312,103.354,77.209,104.037z M65.224,100.725H72.6
				c-0.273-1.913-1.537-3.039-3.517-3.039C66.897,97.686,65.667,98.983,65.224,100.725z"/>
			<path fill="#36B16D" d="M95.135,104.037H83.218c0.478,1.639,1.741,2.902,4.097,2.902c1.332,0,2.254-0.41,2.766-1.229h4.951
				c-0.887,3.142-3.961,5.156-7.819,5.156c-5.259,0-8.776-3.654-8.776-8.537c0-4.917,3.483-8.537,8.708-8.537
				c4.61,0,8.093,3.312,8.093,8.195C95.237,102.671,95.237,103.354,95.135,104.037z M83.149,100.725h7.376
				c-0.273-1.913-1.537-3.039-3.517-3.039C84.823,97.686,83.593,98.983,83.149,100.725z"/>
			<path fill="#36B16D" d="M106.877,87.271c7.136,0,12.429,4.883,12.429,11.508c0,6.761-5.293,11.712-12.429,11.712h-9.049v-23.22
				H106.877z M106.877,105.949c4.131,0,7.41-3.142,7.41-7.171c0-3.893-3.279-7-7.41-7h-4.098v14.171H106.877z"/>
			<path fill="#36B16D" d="M120.677,88.363c0-1.605,1.264-2.8,2.869-2.8c1.57,0,2.834,1.195,2.834,2.8
				c0,1.571-1.264,2.732-2.834,2.732C121.941,91.095,120.677,89.934,120.677,88.363z M125.937,110.491h-4.747V94.135h4.747V110.491z
				"/>
			<path fill="#36B16D" d="M145.266,110.286c0,5.123-3.517,8.195-8.468,8.195c-4.747,0-8.264-2.902-8.605-7.068h4.78
				c0.205,1.707,1.571,2.834,3.825,2.834c2.117,0,3.756-1.366,3.756-3.927v-1.776c-1.263,0.82-2.8,1.298-4.644,1.298
				c-4.507,0-8.161-3.722-8.161-7.99c0-4.917,3.654-8.366,8.161-8.366c1.844,0,3.381,0.478,4.644,1.298v-0.648h4.712V110.286z
				 M140.554,103.867v-4.406c-1.058-1.468-2.424-1.947-3.859-1.947c-2.492,0-4.234,1.776-4.234,4.337
				c0,1.878,1.742,3.995,4.234,3.995C138.13,105.847,139.496,105.369,140.554,103.867z"/>
			<path fill="#36B16D" d="M151.357,104.856c0.273,1.742,1.537,2.424,3.414,2.424c1.64,0,2.767-0.546,2.767-1.4
				c0-0.648-0.546-1.161-1.639-1.366l-3.483-0.581c-2.493-0.444-4.815-1.81-4.815-4.849c0-3.381,2.869-5.395,7.069-5.395
				c2.8,0,7,0.956,7.342,5.566l-4.337,0.034c-0.102-1.468-1.434-2.049-3.005-2.049c-1.639,0-2.424,0.648-2.424,1.4
				c0,0.615,0.444,1.263,1.947,1.537l2.97,0.478c2.664,0.478,4.952,1.742,4.952,4.815c0,3.688-3.21,5.532-7.375,5.532
				c-3.791,0-7.376-1.537-7.717-6.181L151.357,104.856z"/>
			<path fill="#36B16D" d="M32.324,93.792c-5.054,0-8.776,3.586-8.776,8.537c0,4.986,3.722,8.673,8.776,8.673
				c5.02,0,8.708-3.688,8.708-8.673C41.031,97.378,37.344,93.792,32.324,93.792z M32.374,106.778c-0.311,0-0.613-0.033-0.905-0.094
				c-0.268-0.053-0.52-0.133-0.759-0.233c-0.019-0.008-0.039-0.015-0.058-0.022c-0.028-0.012-0.054-0.027-0.081-0.039
				c-1.53-0.689-2.598-2.224-2.598-4.011c0-2.43,1.97-4.4,4.4-4.4c2.43,0,4.4,1.97,4.4,4.4S34.803,106.778,32.374,106.778z"/>
		</g>
	</g>
</g>
</svg>
