<?xml version="1.0" encoding="utf-8"?>
<!-- Generator: Adobe Illustrator 16.0.0, SVG Export Plug-In . SVG Version: 6.00 Build 0)  -->
<!DOCTYPE svg PUBLIC "-//W3C//DTD SVG 1.1//EN" "http://www.w3.org/Graphics/SVG/1.1/DTD/svg11.dtd">
<svg version="1.1" id="Layer_1" xmlns="http://www.w3.org/2000/svg" xmlns:xlink="http://www.w3.org/1999/xlink" x="0px" y="0px"
	 width="385.444px" height="92.828px" viewBox="0 0 385.444 92.828" enable-background="new 0 0 385.444 92.828"
	 xml:space="preserve">
<g>
	<path fill="#BBBBBB" d="M64.158,47.818c0.208-0.452,0.408-0.905,0.594-1.364c1.645-4.039,2.473-8.328,2.473-12.622
		c0-4.301-0.812-8.61-2.451-12.668c-1.641-4.058-4.107-7.875-7.394-11.157c-3.282-3.281-7.096-5.754-11.155-7.391
		c-4.063-1.641-8.371-2.453-12.67-2.453c-4.291,0-8.582,0.823-12.623,2.471c-4.037,1.643-7.826,4.111-11.086,7.373
		c-3.269,3.268-5.738,7.062-7.378,11.106C0.825,25.154,0,29.449,0,33.746c0,4.299,0.816,8.603,2.458,12.659
		c1.644,4.053,4.108,7.861,7.39,11.138c3.276,3.277,7.082,5.745,11.137,7.384c4.056,1.646,8.357,2.459,12.658,2.459
		c4.293,0,8.59-0.82,12.633-2.464c0.474-0.192,0.938-0.396,1.402-0.61l7.149,7.15l6.795-1.572l-0.136,0.133l6.084,6.082l8.224-1.607
		l5.474,5.477l-1.613,8.221l4.799,4.801l14.515-0.705l0.933-8.73L64.158,47.818z M42.889,56.584c-2.955,1.203-6.1,1.804-9.248,1.804
		c-3.16,0-6.316-0.601-9.281-1.804c-2.965-1.196-5.736-2.993-8.149-5.407c-2.414-2.412-4.208-5.186-5.41-8.148
		C9.6,40.063,9,36.906,9,33.746c0-3.146,0.604-6.293,1.803-9.248c1.202-2.954,2.997-5.718,5.405-8.127
		c2.407-2.406,5.168-4.201,8.118-5.401c2.949-1.203,6.089-1.807,9.229-1.807c3.168,0,6.332,0.598,9.301,1.796
		c2.971,1.201,5.744,2.996,8.162,5.412c2.416,2.415,4.205,5.192,5.409,8.161c1.199,2.97,1.798,6.131,1.798,9.299
		c0,3.139-0.604,6.277-1.806,9.227c-1.201,2.953-2.998,5.712-5.401,8.119C48.605,53.585,45.842,55.383,42.889,56.584z"/>
	<g>
		<path fill="#BBBBBB" d="M150.371,60.682h-6.369l-20.304-23.487v23.487h-8.246V22.009h6.198l20.474,24.113V22.009h8.247V60.682
			L150.371,60.682z"/>
		<path fill="#BBBBBB" d="M196.022,39.015h17.459v7.45h-17.459v14.217h-8.248V22.009h28.268v7.507h-20.02V39.015L196.022,39.015z"/>
		<path fill="#BBBBBB" d="M244.041,49.933h-19.847c0.796,2.73,2.898,4.834,6.822,4.834c2.218,0,3.755-0.682,4.607-2.047h8.246
			c-1.479,5.232-6.598,8.588-13.022,8.588c-8.759,0-14.616-6.085-14.616-14.219c0-8.189,5.799-14.218,14.503-14.218
			c7.678,0,13.478,5.517,13.478,13.649C244.214,47.659,244.214,48.796,244.041,49.933z M224.08,44.417h12.284
			c-0.454-3.185-2.56-5.062-5.857-5.062C226.867,39.355,224.817,41.517,224.08,44.417z"/>
		<path fill="#BBBBBB" d="M273.896,49.933h-19.848c0.797,2.73,2.899,4.834,6.823,4.834c2.219,0,3.755-0.682,4.606-2.047h8.247
			c-1.479,5.232-6.598,8.588-13.022,8.588c-8.759,0-14.616-6.085-14.616-14.219c0-8.189,5.8-14.218,14.502-14.218
			c7.678,0,13.479,5.517,13.479,13.649C274.067,47.659,274.067,48.796,273.896,49.933z M253.936,44.417h12.284
			c-0.454-3.185-2.559-5.062-5.858-5.062C256.722,39.355,254.673,41.517,253.936,44.417z"/>
		<path fill="#BBBBBB" d="M293.452,22.009c11.887,0,20.702,8.133,20.702,19.166c0,11.26-8.815,19.506-20.702,19.506h-15.071V22.009
			H293.452z M293.452,53.118c6.883,0,12.341-5.231,12.341-11.943c0-6.483-5.458-11.659-12.341-11.659h-6.824v23.602H293.452z"/>
		<path fill="#BBBBBB" d="M316.438,23.829c0-2.673,2.104-4.663,4.777-4.663c2.616,0,4.722,1.99,4.722,4.663
			c0,2.617-2.105,4.551-4.722,4.551C318.541,28.38,316.438,26.446,316.438,23.829z M325.194,60.682h-7.905V33.441h7.905V60.682z"/>
		<path fill="#BBBBBB" d="M357.389,60.342c0,8.531-5.856,13.65-14.103,13.65c-7.905,0-13.764-4.836-14.334-11.772h7.964
			c0.34,2.844,2.615,4.719,6.37,4.719c3.525,0,6.253-2.273,6.253-6.538v-2.956c-2.103,1.363-4.662,2.16-7.734,2.16
			c-7.504,0-13.59-6.198-13.59-13.307c0-8.19,6.086-13.934,13.59-13.934c3.072,0,5.632,0.796,7.734,2.162v-1.081h7.85V60.342z
			 M349.54,49.649v-7.337c-1.762-2.445-4.036-3.242-6.424-3.242c-4.153,0-7.055,2.958-7.055,7.224c0,3.127,2.902,6.653,7.055,6.653
			C345.504,52.947,347.778,52.151,349.54,49.649z"/>
		<path fill="#BBBBBB" d="M367.532,51.298c0.453,2.9,2.559,4.039,5.688,4.039c2.729,0,4.606-0.911,4.606-2.332
			c0-1.08-0.913-1.934-2.731-2.274l-5.802-0.966c-4.152-0.74-8.02-3.015-8.02-8.076c0-5.63,4.777-8.986,11.773-8.986
			c4.664,0,11.658,1.593,12.227,9.271l-7.223,0.056c-0.169-2.445-2.387-3.412-5.004-3.412c-2.73,0-4.039,1.081-4.039,2.332
			c0,1.024,0.74,2.104,3.243,2.559l4.948,0.796c4.436,0.796,8.245,2.9,8.245,8.019c0,6.142-5.345,9.215-12.284,9.215
			c-6.312,0-12.284-2.561-12.853-10.295L367.532,51.298z"/>
		<path fill="#BBBBBB" d="M169.286,32.872c-8.417,0-14.617,5.971-14.617,14.218c0,8.303,6.2,14.444,14.617,14.444
			c8.36,0,14.502-6.142,14.502-14.444C183.788,38.843,177.646,32.872,169.286,32.872z M169.368,54.499
			c-0.517,0-1.02-0.056-1.508-0.157c-0.445-0.09-0.865-0.222-1.263-0.389c-0.032-0.014-0.064-0.024-0.096-0.037
			c-0.046-0.021-0.089-0.044-0.135-0.065c-2.549-1.147-4.326-3.704-4.326-6.681c0-4.047,3.281-7.328,7.329-7.328
			c4.047,0,7.328,3.281,7.328,7.328C176.696,51.218,173.416,54.499,169.368,54.499z"/>
	</g>
</g>
</svg>
