<?xml version="1.0" encoding="utf-8"?>
<!-- Generator: Adobe Illustrator 16.0.0, SVG Export Plug-In . SVG Version: 6.00 Build 0)  -->
<!DOCTYPE svg PUBLIC "-//W3C//DTD SVG 1.1//EN" "http://www.w3.org/Graphics/SVG/1.1/DTD/svg11.dtd">
<svg version="1.1" id="Layer_1" xmlns="http://www.w3.org/2000/svg" xmlns:xlink="http://www.w3.org/1999/xlink" x="0px" y="0px"
	 width="100px" height="100px" viewBox="0 0 100 100" enable-background="new 0 0 100 100" xml:space="preserve">
<path d="M64.158,47.655c0.208-0.452,0.408-0.905,0.594-1.364c1.645-4.039,2.473-8.328,2.473-12.622c0-4.301-0.812-8.61-2.451-12.668
	c-1.641-4.058-4.109-7.875-7.394-11.157c-3.282-3.282-7.096-5.754-11.155-7.391C42.162,0.813,37.854,0,33.555,0
	c-4.292,0-8.583,0.823-12.623,2.471c-4.037,1.642-7.826,4.111-11.087,7.373c-3.268,3.268-5.737,7.062-7.377,11.106
	C0.825,24.991,0,29.286,0,33.583c0,4.299,0.816,8.603,2.458,12.659c1.643,4.053,4.109,7.861,7.389,11.138
	c3.277,3.277,7.083,5.745,11.138,7.384c4.055,1.644,8.357,2.459,12.658,2.459c4.292,0,8.589-0.82,12.633-2.464
	c0.473-0.192,0.938-0.396,1.402-0.61l7.149,7.15l6.795-1.572l-0.136,0.133l6.084,6.082l8.224-1.611l5.474,5.473l-1.613,8.221
	l4.797,4.801l14.515-0.705l0.931-8.73L64.158,47.655z M42.888,56.421c-2.954,1.203-6.099,1.804-9.247,1.804
	c-3.16,0-6.317-0.601-9.282-1.804c-2.964-1.196-5.736-2.993-8.149-5.407c-2.414-2.413-4.208-5.186-5.41-8.151
	c-1.2-2.962-1.8-6.12-1.8-9.28c0-3.146,0.603-6.293,1.803-9.248c1.202-2.954,2.997-5.718,5.405-8.127
	c2.407-2.406,5.168-4.201,8.118-5.402C27.275,9.603,30.415,9,33.555,9c3.168,0,6.332,0.598,9.301,1.796
	c2.97,1.201,5.743,2.996,8.162,5.412c2.416,2.415,4.205,5.192,5.409,8.161c1.199,2.97,1.798,6.131,1.798,9.299
	c0,3.139-0.604,6.278-1.806,9.227c-1.201,2.952-2.998,5.712-5.401,8.119C48.605,53.422,45.842,55.22,42.888,56.421z"/>
</svg>
