<?xml version="1.0" encoding="utf-8"?>
<!-- Generator: Adobe Illustrator 16.0.0, SVG Export Plug-In . SVG Version: 6.00 Build 0)  -->
<!DOCTYPE svg PUBLIC "-//W3C//DTD SVG 1.1//EN" "http://www.w3.org/Graphics/SVG/1.1/DTD/svg11.dtd">
<svg version="1.1"
	 id="svg2" inkscape:version="0.48.2 r9819" sodipodi:docname="Twitter bird.svg" xmlns:svg="http://www.w3.org/2000/svg" xmlns:dc="http://purl.org/dc/elements/1.1/" xmlns:cc="http://creativecommons.org/ns#" xmlns:sodipodi="http://sodipodi.sourceforge.net/DTD/sodipodi-0.dtd" xmlns:rdf="http://www.w3.org/1999/02/22-rdf-syntax-ns#" xmlns:inkscape="http://www.inkscape.org/namespaces/inkscape"
	 xmlns="http://www.w3.org/2000/svg" xmlns:xlink="http://www.w3.org/1999/xlink" x="0px" y="0px" width="172.997px"
	 height="141.609px" viewBox="0 0 172.997 141.609" enable-background="new 0 0 172.997 141.609" xml:space="preserve">
<sodipodi:namedview  inkscape:window-x="-4" inkscape:current-layer="layer1" inkscape:pageshadow="2" inkscape:window-maximized="1" fit-margin-right="0" inkscape:window-height="744" inkscape:window-width="1280" inkscape:window-y="-4" inkscape:pageopacity="0.0" fit-margin-bottom="0" inkscape:document-units="px" fit-margin-left="0" bordercolor="#666666" inkscape:cx="-261.61877" inkscape:cy="293.32818" pagecolor="#ffffff" id="base" showgrid="false" inkscape:zoom="0.49497475" borderopacity="1.0" fit-margin-top="0">
	</sodipodi:namedview>
<g id="layer1" transform="translate(-282.07284,-395.84327)" inkscape:groupmode="layer" inkscape:label="Layer 1">
	<g id="g2989" transform="matrix(0.125,0,0,-0.125,280.82284,538.26355)">
		<path id="path2991" inkscape:connector-curvature="0" fill="#BBBBBB" d="M877.004,1125.997c-125-45-204.004-161-195.004-288l3-49
			l-50,6c-182,23-341,101-476,232l-66,65l-17-48c-36-107-13-220,62-296c40-42,31-48-38-23c-24,8-45,14-47,11c-7-7,17-98,36-134
			c26-49.992,79-98.992,137-127.992l49-23l-58-1c-56,0-58-1-52-22c20-65,99-134,187-164l62-21l-54-32c-80-46-174-72-268-74
			c-45-1-82-5-82-8c0-10,122-66,193-88c213-65,466-37,656.004,74c135,79,270,236,333,388c34,80.992,68,228.992,68,299.992
			c0,46,3,52,59,107c33,32,64,67,70,77c10,19,9,19-42,2c-85-30-97-26-55,19c31,32,68,90,68,107c0,3-15-2-32-11c-18-10-58-25-88-34
			l-54-17l-49,33c-27,18-65,38-85,44C1001.004,1143.997,923.004,1141.997,877.004,1125.997z"/>
	</g>
</g>
</svg>
